<svg width="174" height="112" viewBox="0 0 174 112" fill="none" xmlns="http://www.w3.org/2000/svg">
<path d="M0.667969 0H173.335V112H0.667969V0Z" fill="url(#paint0_linear_11264_133401)"/>
<mask id="mask0_11264_133401" style="mask-type:alpha" maskUnits="userSpaceOnUse" x="1" y="0" width="172" height="112">
<rect x="1" width="172" height="112" fill="url(#paint1_linear_11264_133401)"/>
</mask>
<g mask="url(#mask0_11264_133401)">
<g filter="url(#filter0_d_11264_133401)">
<rect x="28.668" y="32" width="192" height="48" rx="24" fill="white" shape-rendering="crispEdges"/>
<rect x="29.168" y="32.5" width="191" height="47" rx="23.5" stroke="#E8EDF2" shape-rendering="crispEdges"/>
<path opacity="0.6" d="M68.23 65.4452L63.5844 60.7981C67.0605 56.1533 66.1127 49.5703 61.4675 46.0946C56.8223 42.6189 50.2388 43.5666 46.7628 48.2114C43.2867 52.8562 44.2345 59.4392 48.8797 62.9149C52.6111 65.7069 57.7361 65.7069 61.4675 62.9149L66.115 67.562C66.699 68.146 67.6459 68.146 68.2299 67.562C68.814 66.978 68.814 66.0312 68.2299 65.4472L68.23 65.4452ZM55.2123 62.018C51.0839 62.018 47.7372 58.6715 47.7372 54.5435C47.7372 50.4154 51.0839 47.069 55.2123 47.069C59.3407 47.069 62.6874 50.4154 62.6874 54.5435C62.683 58.6697 59.3389 62.0136 55.2123 62.018Z" fill="#00B14F"/>
</g>
</g>
<defs>
<filter id="filter0_d_11264_133401" x="25.668" y="30.5" width="198" height="54" filterUnits="userSpaceOnUse" color-interpolation-filters="sRGB">
<feFlood flood-opacity="0" result="BackgroundImageFix"/>
<feColorMatrix in="SourceAlpha" type="matrix" values="0 0 0 0 0 0 0 0 0 0 0 0 0 0 0 0 0 0 127 0" result="hardAlpha"/>
<feMorphology radius="1" operator="erode" in="SourceAlpha" result="effect1_dropShadow_11264_133401"/>
<feOffset dy="1.5"/>
<feGaussianBlur stdDeviation="2"/>
<feComposite in2="hardAlpha" operator="out"/>
<feColorMatrix type="matrix" values="0 0 0 0 0.0392157 0 0 0 0 0.0352941 0 0 0 0 0.0431373 0 0 0 0.07 0"/>
<feBlend mode="normal" in2="BackgroundImageFix" result="effect1_dropShadow_11264_133401"/>
<feBlend mode="normal" in="SourceGraphic" in2="effect1_dropShadow_11264_133401" result="shape"/>
</filter>
<linearGradient id="paint0_linear_11264_133401" x1="-33.056" y1="-38.5" x2="206.172" y2="27.3417" gradientUnits="userSpaceOnUse">
<stop stop-color="#F2F4F7"/>
<stop offset="1" stop-color="white"/>
</linearGradient>
<linearGradient id="paint1_linear_11264_133401" x1="173" y1="56" x2="1" y2="56" gradientUnits="userSpaceOnUse">
<stop offset="0.05" stop-color="#D9D9D9" stop-opacity="0"/>
<stop offset="0.33" stop-color="#737373"/>
</linearGradient>
</defs>
</svg>
